<!--

https://www.mdjahidulislamsujan.com/

-->

<svg viewBox="0 0 37 37" width="256" height="256" fill="#000000" shape-rendering="crispEdges" xmlns="http://www.w3.org/2000/svg" version="1.1"><path transform="matrix(1,0,0,1,4,4)" d="M27,28h2v1h-2v-1zM24,28h1v1h-1v-1zM22,28h1v1h-1v-1zM19,28h2v1h-2v-1zM14,28h4v1h-4v-1zM9,28h3v1h-3v-1zM0,28h7v1h-7v-1zM27,27h1v1h-1v-1zM20,27h4v1h-4v-1zM16,27h2v1h-2v-1zM11,27h4v1h-4v-1zM8,27h1v1h-1v-1zM6,27h1v1h-1v-1zM0,27h1v1h-1v-1zM28,26h1v1h-1v-1zM23,26h2v1h-2v-1zM15,26h5v1h-5v-1zM10,26h4v1h-4v-1zM8,26h1v1h-1v-1zM6,26h1v1h-1v-1zM2,26h3v1h-3v-1zM0,26h1v1h-1v-1zM26,25h1v1h-1v-1zM24,25h1v1h-1v-1zM20,25h2v1h-2v-1zM13,25h5v1h-5v-1zM10,25h2v1h-2v-1zM6,25h1v1h-1v-1zM2,25h3v1h-3v-1zM0,25h1v1h-1v-1zM27,24h1v1h-1v-1zM20,24h6v1h-6v-1zM18,24h1v1h-1v-1zM16,24h1v1h-1v-1zM8,24h4v1h-4v-1zM6,24h1v1h-1v-1zM2,24h3v1h-3v-1zM0,24h1v1h-1v-1zM27,23h2v1h-2v-1zM24,23h1v1h-1v-1zM20,23h1v1h-1v-1zM17,23h2v1h-2v-1zM15,23h1v1h-1v-1zM12,23h1v1h-1v-1zM9,23h1v1h-1v-1zM6,23h1v1h-1v-1zM0,23h1v1h-1v-1zM26,22h3v1h-3v-1zM24,22h1v1h-1v-1zM22,22h1v1h-1v-1zM19,22h2v1h-2v-1zM17,22h1v1h-1v-1zM13,22h1v1h-1v-1zM8,22h1v1h-1v-1zM0,22h7v1h-7v-1zM27,21h2v1h-2v-1zM24,21h1v1h-1v-1zM18,21h3v1h-3v-1zM16,21h1v1h-1v-1zM14,21h1v1h-1v-1zM8,21h5v1h-5v-1zM27,20h1v1h-1v-1zM20,20h5v1h-5v-1zM16,20h2v1h-2v-1zM13,20h1v1h-1v-1zM10,20h2v1h-2v-1zM4,20h5v1h-5v-1zM0,20h1v1h-1v-1zM27,19h2v1h-2v-1zM25,19h1v1h-1v-1zM22,19h1v1h-1v-1zM17,19h4v1h-4v-1zM15,19h1v1h-1v-1zM13,19h1v1h-1v-1zM10,19h2v1h-2v-1zM7,19h2v1h-2v-1zM1,19h2v1h-2v-1zM26,18h3v1h-3v-1zM23,18h1v1h-1v-1zM21,18h1v1h-1v-1zM17,18h1v1h-1v-1zM11,18h3v1h-3v-1zM8,18h2v1h-2v-1zM3,18h4v1h-4v-1zM0,18h1v1h-1v-1zM27,17h2v1h-2v-1zM20,17h3v1h-3v-1zM15,17h1v1h-1v-1zM10,17h3v1h-3v-1zM7,17h2v1h-2v-1zM5,17h1v1h-1v-1zM1,17h1v1h-1v-1zM25,16h1v1h-1v-1zM17,16h6v1h-6v-1zM11,16h2v1h-2v-1zM6,16h4v1h-4v-1zM4,16h1v1h-1v-1zM0,16h2v1h-2v-1zM28,15h1v1h-1v-1zM23,15h1v1h-1v-1zM15,15h7v1h-7v-1zM13,15h1v1h-1v-1zM10,15h2v1h-2v-1zM7,15h2v1h-2v-1zM4,15h2v1h-2v-1zM1,15h1v1h-1v-1zM26,14h3v1h-3v-1zM21,14h3v1h-3v-1zM15,14h3v1h-3v-1zM12,14h1v1h-1v-1zM5,14h5v1h-5v-1zM1,14h3v1h-3v-1zM27,13h2v1h-2v-1zM20,13h4v1h-4v-1zM15,13h1v1h-1v-1zM8,13h5v1h-5v-1zM0,13h1v1h-1v-1zM22,12h2v1h-2v-1zM16,12h2v1h-2v-1zM13,12h1v1h-1v-1zM4,12h6v1h-6v-1zM1,12h1v1h-1v-1zM27,11h1v1h-1v-1zM21,11h4v1h-4v-1zM17,11h2v1h-2v-1zM12,11h1v1h-1v-1zM9,11h2v1h-2v-1zM2,11h2v1h-2v-1zM23,10h6v1h-6v-1zM20,10h1v1h-1v-1zM12,10h1v1h-1v-1zM10,10h1v1h-1v-1zM5,10h2v1h-2v-1zM1,10h3v1h-3v-1zM28,9h1v1h-1v-1zM22,9h1v1h-1v-1zM17,9h1v1h-1v-1zM14,9h2v1h-2v-1zM12,9h1v1h-1v-1zM8,9h2v1h-2v-1zM2,9h2v1h-2v-1zM0,9h1v1h-1v-1zM24,8h5v1h-5v-1zM22,8h1v1h-1v-1zM20,8h1v1h-1v-1zM17,8h1v1h-1v-1zM15,8h1v1h-1v-1zM12,8h1v1h-1v-1zM9,8h1v1h-1v-1zM6,8h2v1h-2v-1zM4,8h1v1h-1v-1zM1,8h2v1h-2v-1zM17,7h2v1h-2v-1zM12,7h3v1h-3v-1zM10,7h1v1h-1v-1zM8,7h1v1h-1v-1zM22,6h7v1h-7v-1zM20,6h1v1h-1v-1zM18,6h1v1h-1v-1zM16,6h1v1h-1v-1zM14,6h1v1h-1v-1zM12,6h1v1h-1v-1zM10,6h1v1h-1v-1zM8,6h1v1h-1v-1zM0,6h7v1h-7v-1zM28,5h1v1h-1v-1zM22,5h1v1h-1v-1zM19,5h1v1h-1v-1zM17,5h1v1h-1v-1zM14,5h1v1h-1v-1zM11,5h2v1h-2v-1zM6,5h1v1h-1v-1zM0,5h1v1h-1v-1zM28,4h1v1h-1v-1zM24,4h3v1h-3v-1zM22,4h1v1h-1v-1zM16,4h4v1h-4v-1zM12,4h3v1h-3v-1zM8,4h1v1h-1v-1zM6,4h1v1h-1v-1zM2,4h3v1h-3v-1zM0,4h1v1h-1v-1zM28,3h1v1h-1v-1zM24,3h3v1h-3v-1zM22,3h1v1h-1v-1zM20,3h1v1h-1v-1zM18,3h1v1h-1v-1zM10,3h1v1h-1v-1zM8,3h1v1h-1v-1zM6,3h1v1h-1v-1zM2,3h3v1h-3v-1zM0,3h1v1h-1v-1zM28,2h1v1h-1v-1zM24,2h3v1h-3v-1zM22,2h1v1h-1v-1zM19,2h1v1h-1v-1zM13,2h2v1h-2v-1zM8,2h2v1h-2v-1zM6,2h1v1h-1v-1zM2,2h3v1h-3v-1zM0,2h1v1h-1v-1zM28,1h1v1h-1v-1zM22,1h1v1h-1v-1zM19,1h1v1h-1v-1zM16,1h1v1h-1v-1zM12,1h2v1h-2v-1zM10,1h1v1h-1v-1zM8,1h1v1h-1v-1zM6,1h1v1h-1v-1zM0,1h1v1h-1v-1zM22,0h7v1h-7v-1zM18,0h2v1h-2v-1zM15,0h2v1h-2v-1zM8,0h4v1h-4v-1zM0,0h7v1h-7v-1z"/></svg>