<!-- https://www.mdjahidulislamsujan.com -->

<svg viewBox="0 0 37 37" width="180" height="180" fill="#000000" shape-rendering="crispEdges" xmlns="http://www.w3.org/2000/svg" version="1.1">
    <path fill="#ffffff" d="M0,0V37H37V0H0Z" />
    <path transform="matrix(1,0,0,1,4,4)" d="M23,28h2v1h-2v-1zM19,28h3v1h-3v-1zM14,28h2v1h-2v-1zM12,28h1v1h-1v-1zM0,28h7v1h-7v-1zM28,27h1v1h-1v-1zM24,27h3v1h-3v-1zM18,27h2v1h-2v-1zM16,27h1v1h-1v-1zM11,27h1v1h-1v-1zM8,27h1v1h-1v-1zM6,27h1v1h-1v-1zM0,27h1v1h-1v-1zM23,26h6v1h-6v-1zM20,26h2v1h-2v-1zM17,26h2v1h-2v-1zM15,26h1v1h-1v-1zM13,26h1v1h-1v-1zM10,26h1v1h-1v-1zM6,26h1v1h-1v-1zM2,26h3v1h-3v-1zM0,26h1v1h-1v-1zM27,25h1v1h-1v-1zM23,25h1v1h-1v-1zM18,25h1v1h-1v-1zM13,25h1v1h-1v-1zM11,25h1v1h-1v-1zM8,25h2v1h-2v-1zM6,25h1v1h-1v-1zM2,25h3v1h-3v-1zM0,25h1v1h-1v-1zM19,24h6v1h-6v-1zM17,24h1v1h-1v-1zM15,24h1v1h-1v-1zM11,24h3v1h-3v-1zM8,24h1v1h-1v-1zM6,24h1v1h-1v-1zM2,24h3v1h-3v-1zM0,24h1v1h-1v-1zM24,23h2v1h-2v-1zM18,23h3v1h-3v-1zM16,23h1v1h-1v-1zM14,23h1v1h-1v-1zM10,23h1v1h-1v-1zM8,23h1v1h-1v-1zM6,23h1v1h-1v-1zM0,23h1v1h-1v-1zM26,22h1v1h-1v-1zM24,22h1v1h-1v-1zM22,22h1v1h-1v-1zM19,22h2v1h-2v-1zM15,22h2v1h-2v-1zM11,22h3v1h-3v-1zM0,22h7v1h-7v-1zM24,21h3v1h-3v-1zM20,21h1v1h-1v-1zM17,21h1v1h-1v-1zM12,21h4v1h-4v-1zM8,21h3v1h-3v-1zM19,20h8v1h-8v-1zM16,20h2v1h-2v-1zM14,20h1v1h-1v-1zM9,20h2v1h-2v-1zM3,20h5v1h-5v-1zM0,20h2v1h-2v-1zM21,19h7v1h-7v-1zM19,19h1v1h-1v-1zM15,19h2v1h-2v-1zM11,19h2v1h-2v-1zM7,19h1v1h-1v-1zM0,19h5v1h-5v-1zM28,18h1v1h-1v-1zM25,18h2v1h-2v-1zM19,18h1v1h-1v-1zM16,18h1v1h-1v-1zM8,18h4v1h-4v-1zM4,18h3v1h-3v-1zM0,18h3v1h-3v-1zM24,17h2v1h-2v-1zM18,17h3v1h-3v-1zM12,17h1v1h-1v-1zM10,17h1v1h-1v-1zM4,17h2v1h-2v-1zM0,17h3v1h-3v-1zM27,16h2v1h-2v-1zM25,16h1v1h-1v-1zM23,16h1v1h-1v-1zM17,16h4v1h-4v-1zM14,16h2v1h-2v-1zM11,16h1v1h-1v-1zM6,16h4v1h-4v-1zM3,16h1v1h-1v-1zM24,15h4v1h-4v-1zM22,15h1v1h-1v-1zM14,15h2v1h-2v-1zM12,15h1v1h-1v-1zM10,15h1v1h-1v-1zM7,15h2v1h-2v-1zM5,15h1v1h-1v-1zM28,14h1v1h-1v-1zM25,14h1v1h-1v-1zM22,14h2v1h-2v-1zM19,14h2v1h-2v-1zM16,14h2v1h-2v-1zM13,14h2v1h-2v-1zM10,14h2v1h-2v-1zM8,14h1v1h-1v-1zM2,14h5v1h-5v-1zM28,13h1v1h-1v-1zM26,13h1v1h-1v-1zM24,13h1v1h-1v-1zM22,13h1v1h-1v-1zM17,13h2v1h-2v-1zM8,13h4v1h-4v-1zM3,13h3v1h-3v-1zM1,13h1v1h-1v-1zM27,12h1v1h-1v-1zM25,12h1v1h-1v-1zM21,12h2v1h-2v-1zM19,12h1v1h-1v-1zM14,12h2v1h-2v-1zM12,12h1v1h-1v-1zM8,12h1v1h-1v-1zM5,12h2v1h-2v-1zM0,12h2v1h-2v-1zM28,11h1v1h-1v-1zM25,11h1v1h-1v-1zM23,11h1v1h-1v-1zM19,11h1v1h-1v-1zM17,11h1v1h-1v-1zM10,11h1v1h-1v-1zM8,11h1v1h-1v-1zM2,11h3v1h-3v-1zM24,10h3v1h-3v-1zM20,10h3v1h-3v-1zM17,10h1v1h-1v-1zM14,10h1v1h-1v-1zM11,10h1v1h-1v-1zM8,10h1v1h-1v-1zM6,10h1v1h-1v-1zM0,10h4v1h-4v-1zM23,9h5v1h-5v-1zM18,9h4v1h-4v-1zM9,9h5v1h-5v-1zM4,9h2v1h-2v-1zM2,9h1v1h-1v-1zM27,8h1v1h-1v-1zM24,8h2v1h-2v-1zM21,8h2v1h-2v-1zM19,8h1v1h-1v-1zM17,8h1v1h-1v-1zM13,8h1v1h-1v-1zM8,8h3v1h-3v-1zM3,8h4v1h-4v-1zM1,8h1v1h-1v-1zM20,7h1v1h-1v-1zM12,7h4v1h-4v-1zM10,7h1v1h-1v-1zM8,7h1v1h-1v-1zM22,6h7v1h-7v-1zM20,6h1v1h-1v-1zM18,6h1v1h-1v-1zM16,6h1v1h-1v-1zM14,6h1v1h-1v-1zM12,6h1v1h-1v-1zM10,6h1v1h-1v-1zM8,6h1v1h-1v-1zM0,6h7v1h-7v-1zM28,5h1v1h-1v-1zM22,5h1v1h-1v-1zM17,5h2v1h-2v-1zM14,5h2v1h-2v-1zM12,5h1v1h-1v-1zM9,5h1v1h-1v-1zM6,5h1v1h-1v-1zM0,5h1v1h-1v-1zM28,4h1v1h-1v-1zM24,4h3v1h-3v-1zM22,4h1v1h-1v-1zM18,4h2v1h-2v-1zM15,4h1v1h-1v-1zM13,4h1v1h-1v-1zM10,4h2v1h-2v-1zM8,4h1v1h-1v-1zM6,4h1v1h-1v-1zM2,4h3v1h-3v-1zM0,4h1v1h-1v-1zM28,3h1v1h-1v-1zM24,3h3v1h-3v-1zM22,3h1v1h-1v-1zM19,3h1v1h-1v-1zM15,3h3v1h-3v-1zM13,3h1v1h-1v-1zM8,3h4v1h-4v-1zM6,3h1v1h-1v-1zM2,3h3v1h-3v-1zM0,3h1v1h-1v-1zM28,2h1v1h-1v-1zM24,2h3v1h-3v-1zM22,2h1v1h-1v-1zM20,2h1v1h-1v-1zM14,2h1v1h-1v-1zM11,2h1v1h-1v-1zM9,2h1v1h-1v-1zM6,2h1v1h-1v-1zM2,2h3v1h-3v-1zM0,2h1v1h-1v-1zM28,1h1v1h-1v-1zM22,1h1v1h-1v-1zM17,1h4v1h-4v-1zM13,1h2v1h-2v-1zM8,1h1v1h-1v-1zM6,1h1v1h-1v-1zM0,1h1v1h-1v-1zM22,0h7v1h-7v-1zM17,0h2v1h-2v-1zM14,0h1v1h-1v-1zM10,0h3v1h-3v-1zM0,0h7v1h-7v-1z" />
</svg>